<svg id="Layer_1" data-name="Layer 1" xmlns="http://www.w3.org/2000/svg" width="192" height="409" viewBox="0 0 192 409"><defs><style>.cls-1{fill:#6b7b95;}</style></defs><title>arrow-up</title><path class="cls-1" d="M186,155.86,111.67,27.14a18.1,18.1,0,0,0-31.34,0L6,155.86A18.09,18.09,0,0,0,21.68,183H66a16.73,16.73,0,0,1,16.71-16h26.5A16.73,16.73,0,0,1,126,183h44.36A18.09,18.09,0,0,0,186,155.86Z"/><path class="cls-1" d="M109.25,167H82.75A16.73,16.73,0,0,0,66,183c0,.25,0,.5,0,.75v144.5A16.75,16.75,0,0,0,82.75,345h26.5A16.75,16.75,0,0,0,126,328.25V183.75c0-.25,0-.5,0-.75A16.73,16.73,0,0,0,109.25,167Z"/><path class="cls-1" d="M34.05,383.78a7.23,7.23,0,0,1-3.61-4.34c-.82-2.17-1.23-5.41-1.23-9.7s.41-7.55,1.25-9.78a7.68,7.68,0,0,1,3.67-4.51,15,15,0,0,1,6.48-1.16,15.28,15.28,0,0,1,6.58,1.16,7.51,7.51,0,0,1,3.6,4.49c.81,2.22,1.21,5.48,1.21,9.8s-.41,7.53-1.23,9.7a7.25,7.25,0,0,1-3.6,4.34,16.06,16.06,0,0,1-6.56,1.09A16,16,0,0,1,34.05,383.78Zm11.91-2a6,6,0,0,0,2.76-3.71,28.83,28.83,0,0,0,.91-8.35,30.63,30.63,0,0,0-.91-8.65A5.88,5.88,0,0,0,46,357.34a12.34,12.34,0,0,0-5.35-.92,11.82,11.82,0,0,0-5.19.92,6.19,6.19,0,0,0-2.85,3.79,28.21,28.21,0,0,0-1,8.61,30.78,30.78,0,0,0,.84,8.37,5.73,5.73,0,0,0,2.7,3.69,12.67,12.67,0,0,0,5.48.94A12.3,12.3,0,0,0,46,381.8Z"/><path class="cls-1" d="M58,362.77h1.84l.54,2.3a16.34,16.34,0,0,1,3.46-1.72,11.25,11.25,0,0,1,4-.82,6.44,6.44,0,0,1,6,3.19,15.26,15.26,0,0,1,1.91,7.92q0,11.24-7.87,11.23a12.62,12.62,0,0,1-3.77-.61,17.05,17.05,0,0,1-3.69-1.64v11.72H58Zm15.33,10.87q0-4.59-1.72-6.87a5.2,5.2,0,0,0-4.3-2.28,10.39,10.39,0,0,0-3.47.56,31.36,31.36,0,0,0-3.46,1.49v14.31a14.22,14.22,0,0,0,6.93,2Q73.27,382.86,73.28,373.64Z"/><path class="cls-1" d="M92.76,358.51a.61.61,0,0,1-.17-.45v-2.91a.55.55,0,0,1,.62-.62h1.6c.35,0,.53.21.53.62v2.91c0,.41-.18.61-.53.61h-1.6A.61.61,0,0,1,92.76,358.51Zm0,4.26h2.38v21.86H92.8Z"/><path class="cls-1" d="M121.05,364.13l-5.42.32a12,12,0,0,1,1.52,1.11,4.67,4.67,0,0,1,1.15,1.76,8.14,8.14,0,0,1,.49,3.08,6.63,6.63,0,0,1-1.8,4.71c-1.2,1.29-3.16,1.93-5.86,1.93h-3.37a6.58,6.58,0,0,0-3.09.57,2.07,2.07,0,0,0-1,2,1.71,1.71,0,0,0,.72,1.52,2.91,2.91,0,0,0,1.7.49h7.63q3.77,0,5.57,1.46a5.25,5.25,0,0,1,1.81,4.36v1a5.56,5.56,0,0,1-2,4.61,9.37,9.37,0,0,1-5.91,1.62h-6a9,9,0,0,1-5.27-1.39,4.69,4.69,0,0,1-2-4.06v-1.07a4.92,4.92,0,0,1,1-3.18,6.19,6.19,0,0,1,2.7-1.94,3.71,3.71,0,0,1-1.58-1.26,3.16,3.16,0,0,1-.55-1.86q0-3,3.73-3.77a5.78,5.78,0,0,1-3.14-2.57,7.84,7.84,0,0,1-.92-3.79q0-7,8.24-7h11.65Zm-13.7,19.35a6.19,6.19,0,0,0-3.69,1.08,3.71,3.71,0,0,0-1.51,3.22v1a3.42,3.42,0,0,0,1.41,3.07,7.24,7.24,0,0,0,4,.95h5.29a7.65,7.65,0,0,0,4.39-1.09,3.69,3.69,0,0,0,1.55-3.22v-.94a3.8,3.8,0,0,0-1.23-3.06c-.82-.69-2.22-1-4.22-1Zm3.94-18.86H109a6.2,6.2,0,0,0-4.14,1.23,5,5,0,0,0-1.43,4c0,3.53,1.66,5.29,5,5.29h2.5q5.7,0,5.7-5C116.58,366.46,114.81,364.62,111.29,364.62Z"/><path class="cls-1" d="M128.12,383.83a6,6,0,0,1-2.73-3.47,21.63,21.63,0,0,1-.82-6.72,20.91,20.91,0,0,1,.86-6.75,5.78,5.78,0,0,1,2.81-3.38,12,12,0,0,1,5.35-1,13.83,13.83,0,0,1,4.64.65,4.81,4.81,0,0,1,2.62,2.22,8.91,8.91,0,0,1,.86,4.26,4.59,4.59,0,0,1-1.54,3.87,7,7,0,0,1-4.45,1.21H127a16.84,16.84,0,0,0,.62,4.9,4.26,4.26,0,0,0,2.07,2.55,9.48,9.48,0,0,0,4.36.8h7.22v1.43a70.49,70.49,0,0,1-7.75.45A11.33,11.33,0,0,1,128.12,383.83Zm7.44-10.77a5,5,0,0,0,3-.73,3.22,3.22,0,0,0,.95-2.67,7.17,7.17,0,0,0-.58-3.2,3.28,3.28,0,0,0-1.84-1.62,10.66,10.66,0,0,0-3.53-.47,8.79,8.79,0,0,0-4.08.76,4.3,4.3,0,0,0-2,2.6,18.59,18.59,0,0,0-.59,5.33Z"/><path class="cls-1" d="M147.61,362.77h1.77l.61,2.46a18.39,18.39,0,0,1,4-2,12.6,12.6,0,0,1,4.35-.8,6.18,6.18,0,0,1,5,2.09,7.77,7.77,0,0,1,1.74,5.13v15H162.7V369.87a5.42,5.42,0,0,0-1.37-3.8,4.77,4.77,0,0,0-3.67-1.49,12,12,0,0,0-3.83.55,24.32,24.32,0,0,0-3.84,1.74v17.76h-2.38Z"/></svg>
